<svg version="1.1" id="Layer_1" xmlns="http://www.w3.org/2000/svg" xmlns:xlink="http://www.w3.org/1999/xlink" x="0px" y="0px"
	 width="100%" viewBox="0 0 1254 1080" enable-background="new 0 0 1254 1080" xml:space="preserve">
<path fill="#FFFFFF" opacity="1.000000" stroke="none" 
	d="
M857.000000,1081.000000 
	C571.333313,1081.000000 286.166656,1081.000000 1.000000,1081.000000 
	C1.000000,721.000000 1.000000,361.000000 1.000000,1.000000 
	C419.000000,1.000000 837.000000,1.000000 1255.000000,1.000000 
	C1255.000000,361.000000 1255.000000,721.000000 1255.000000,1081.000000 
	C1122.500000,1081.000000 990.000000,1081.000000 857.000000,1081.000000 
M726.063293,548.666260 
	C731.962646,523.759277 737.969727,498.877228 743.732788,473.938721 
	C750.243835,445.763733 756.148071,417.437073 765.950439,390.135834 
	C776.908997,359.614319 789.400085,329.887115 810.875549,304.935760 
	C825.946655,287.425201 843.355957,273.057953 865.209106,264.535889 
	C878.357117,259.408569 891.865173,255.990097 905.919861,255.712662 
	C920.849121,255.417953 935.798584,255.964188 950.734192,256.342041 
	C953.177734,256.403839 955.926025,257.985901 956.871155,254.406693 
	C957.755188,251.058975 955.163147,250.160400 952.639893,249.444641 
	C937.303528,245.094360 922.025391,240.524261 906.618103,236.441757 
	C876.482544,228.456711 845.728699,226.921036 815.073364,231.290405 
	C780.044067,236.283157 751.473389,253.752640 728.976807,281.112762 
	C707.330200,307.439056 694.401489,338.195557 683.735474,370.078247 
	C669.201111,413.524475 660.490906,458.441528 650.161255,502.961670 
	C643.440552,531.927368 636.236450,560.821716 627.957275,589.373535 
	C619.736633,617.723389 608.906860,645.174133 592.202332,669.859192 
	C577.659851,691.349304 560.508301,710.302429 537.130005,722.402222 
	C511.242310,735.800842 483.669495,741.248291 454.501923,738.234619 
	C452.161469,737.992859 448.148285,739.171082 447.452209,740.784912 
	C445.887512,744.412842 449.770203,745.101929 452.328705,746.127380 
	C453.253143,746.497925 454.191589,746.854004 455.151855,747.111450 
	C475.047913,752.446167 494.885132,757.820129 515.628479,759.216553 
	C539.615051,760.831299 563.403137,761.426392 586.934326,755.100159 
	C612.348938,748.267639 634.191162,735.400269 652.399414,716.599792 
	C670.699402,697.704590 683.751404,675.288147 693.938049,651.187439 
	C707.832703,618.314209 717.651672,584.134460 726.063293,548.666260 
M379.248077,582.799561 
	C376.605713,596.358704 378.861816,609.243713 384.611755,621.641785 
	C400.628052,656.176025 425.693542,682.257446 458.781342,700.763428 
	C464.420410,703.917480 470.333160,706.591187 476.170593,709.379822 
	C489.569611,715.780762 501.585266,716.455444 516.140930,708.831848 
	C542.690186,694.926453 562.617188,675.377747 577.899658,650.286987 
	C578.864990,648.702026 579.090210,646.666260 579.659668,644.840210 
	C577.940002,644.485229 576.235840,643.987793 574.498169,643.797791 
	C560.152405,642.229126 545.559021,641.881409 531.496948,638.964233 
	C493.619385,631.106506 468.745300,607.931946 458.257874,570.807129 
	C454.192291,556.415161 453.368561,541.081909 451.435516,526.129944 
	C450.909943,522.064880 449.337555,520.128601 445.470764,520.962708 
	C437.895111,522.596802 429.969788,523.599731 422.945923,526.622375 
	C398.600464,537.099304 385.197205,556.625366 379.248077,582.799561 
M680.822998,316.286438 
	C693.459900,288.852936 710.369324,264.462708 732.982117,243.773438 
	C730.558594,242.816971 728.532837,242.367065 726.508667,242.374176 
	C702.187927,242.459747 677.866394,242.515900 653.547424,242.791595 
	C642.246887,242.919708 630.872192,242.788086 619.668701,244.022629 
	C584.776367,247.867432 554.628174,278.371338 549.455017,313.333923 
	C547.751038,324.849945 549.457153,325.952271 560.491943,325.996979 
	C595.139404,326.137421 629.787476,326.155823 664.434570,326.353394 
	C671.809021,326.395416 677.384460,323.923645 680.822998,316.286438 
z"/>
<path fill="#49ACF5" opacity="1.000000" stroke="none" 
	d="
M726.027283,549.082581 
	C717.651672,584.134460 707.832703,618.314209 693.938049,651.187439 
	C683.751404,675.288147 670.699402,697.704590 652.399414,716.599792 
	C634.191162,735.400269 612.348938,748.267639 586.934326,755.100159 
	C563.403137,761.426392 539.615051,760.831299 515.628479,759.216553 
	C494.885132,757.820129 475.047913,752.446167 455.151855,747.111450 
	C454.191589,746.854004 453.253143,746.497925 452.328705,746.127380 
	C449.770203,745.101929 445.887512,744.412842 447.452209,740.784912 
	C448.148285,739.171082 452.161469,737.992859 454.501923,738.234619 
	C483.669495,741.248291 511.242310,735.800842 537.130005,722.402222 
	C560.508301,710.302429 577.659851,691.349304 592.202332,669.859192 
	C608.906860,645.174133 619.736633,617.723389 627.957275,589.373535 
	C636.236450,560.821716 643.440552,531.927368 650.161255,502.961670 
	C660.490906,458.441528 669.201111,413.524475 683.735474,370.078247 
	C694.401489,338.195557 707.330200,307.439056 728.976807,281.112762 
	C751.473389,253.752640 780.044067,236.283157 815.073364,231.290405 
	C845.728699,226.921036 876.482544,228.456711 906.618103,236.441757 
	C922.025391,240.524261 937.303528,245.094360 952.639893,249.444641 
	C955.163147,250.160400 957.755188,251.058975 956.871155,254.406693 
	C955.926025,257.985901 953.177734,256.403839 950.734192,256.342041 
	C935.798584,255.964188 920.849121,255.417953 905.919861,255.712662 
	C891.865173,255.990097 878.357117,259.408569 865.209106,264.535889 
	C843.355957,273.057953 825.946655,287.425201 810.875549,304.935760 
	C789.400085,329.887115 776.908997,359.614319 765.950439,390.135834 
	C756.148071,417.437073 750.243835,445.763733 743.732788,473.938721 
	C737.969727,498.877228 731.962646,523.759277 726.027283,549.082581 
z"/>
<path fill="#090806" opacity="1.000000" stroke="none" 
	d="
M379.367889,582.385437 
	C385.197205,556.625366 398.600464,537.099304 422.945923,526.622375 
	C429.969788,523.599731 437.895111,522.596802 445.470764,520.962708 
	C449.337555,520.128601 450.909943,522.064880 451.435516,526.129944 
	C453.368561,541.081909 454.192291,556.415161 458.257874,570.807129 
	C468.745300,607.931946 493.619385,631.106506 531.496948,638.964233 
	C545.559021,641.881409 560.152405,642.229126 574.498169,643.797791 
	C576.235840,643.987793 577.940002,644.485229 579.659668,644.840210 
	C579.090210,646.666260 578.864990,648.702026 577.899658,650.286987 
	C562.617188,675.377747 542.690186,694.926453 516.140930,708.831848 
	C501.585266,716.455444 489.569611,715.780762 476.170593,709.379822 
	C470.333160,706.591187 464.420410,703.917480 458.781342,700.763428 
	C425.693542,682.257446 400.628052,656.176025 384.611755,621.641785 
	C378.861816,609.243713 376.605713,596.358704 379.367889,582.385437 
z"/>
<path fill="#090806" opacity="1.000000" stroke="none" 
	d="
M680.645996,316.609772 
	C677.384460,323.923645 671.809021,326.395416 664.434570,326.353394 
	C629.787476,326.155823 595.139404,326.137421 560.491943,325.996979 
	C549.457153,325.952271 547.751038,324.849945 549.455017,313.333923 
	C554.628174,278.371338 584.776367,247.867432 619.668701,244.022629 
	C630.872192,242.788086 642.246887,242.919708 653.547424,242.791595 
	C677.866394,242.515900 702.187927,242.459747 726.508667,242.374176 
	C728.532837,242.367065 730.558594,242.816971 732.982117,243.773438 
	C710.369324,264.462708 693.459900,288.852936 680.645996,316.609772 
z"/>
</svg>