<svg version="1.2" baseProfile="tiny" viewBox="0 0 300 300" xmlns="http://www.w3.org/2000/svg" xmlns:xlink="http://www.w3.org/1999/xlink" width="512" height="512"><title>Jobernify</title><g><g fill="#feffff" transform="matrix(.1 0 0 -.1 0 300)"><path d="M0 1500V0h3000v3000H0V1500z"/></g><g fill="#b3d8ec" transform="matrix(.1 0 0 -.1 0 300)"><path d="m2103 2430-52-8-65-30-65-31-52-48c-136-127-201-285-303-739-63-276-102-405-158-522l-40-82-70-75-70-75-61-29-62-29-59-11c-33-6-84-11-114-11h-54l4-12 4-13 88-22 88-22 87-7 86-6 75 16 75 16 52 26 53 25 54 50 53 49 42 63c80 123 126 262 217 649 66 283 90 359 150 485l44 92 55 59c31 33 77 74 103 90l47 30 60 18 60 18 103-1h102v23l-52 17c-97 30-182 45-278 50l-95 6-52-9zm-698-53c-17-7-48-23-68-35l-37-24-29-41c-33-49-51-98-51-139v-28l212 2 211 3 48 81c27 45 72 107 100 138l51 56-203-1-204-1-30-11zm-589-921c-21-8-55-28-75-44l-36-29-24-47-24-48-5-54-5-55 38-76 38-77 67-66 66-65 83-43c45-23 92-42 103-42 33 0 126 51 178 97 41 36 110 128 110 145 0 3-35 8-78 11l-79 6-58 22-58 22-43 39-44 40-25 52-25 51-13 85-13 85-19 2c-11 1-37-4-59-11z"/></g><g fill="#48adf7" transform="matrix(.1 0 0 -.1 0 300)"><path d="M2062 2414c-63-17-102-36-163-80l-46-34-41-53c-102-136-150-275-262-766-47-206-94-353-147-453l-35-68-60-65-60-65-44-26c-25-15-72-35-105-45l-61-19H888l4-12 4-12 70-19 69-18 110-6 110-6 58 12 57 12 69 35 69 34 59 64 59 63 46 89 46 89 32 100c17 55 62 228 100 385 74 308 101 394 162 511l39 77 53 58 54 59 53 32 54 32 60 16 60 16 93-2c51-1 95 1 98 4 8 7-104 42-200 61l-75 16-93-1h-93l-53-15zm-642-33c-49-15-86-40-126-83l-41-44-17-46-18-45 4-24 3-24h419l41 73 40 74 53 58c28 32 52 61 52 64s-87 6-192 5l-193-1-25-7zm-580-920c-99-31-173-116-186-215l-6-44 16-48c21-63 63-126 128-192l53-54 57-33c32-19 78-41 103-50l47-15 46 20c25 11 69 38 97 59l50 38 43 62 43 61-13 4c-7 2-45 7-83 9l-70 5-57 22-56 21-41 39-40 39-26 51-26 51-13 87-12 87-15 2c-7 1-25-2-39-6z"/></g><g fill="#939292" transform="matrix(.1 0 0 -.1 0 300)"><path d="M1420 2381c-49-15-86-40-126-83l-41-44-17-46-18-45 4-24 3-24h419l41 73 40 74 53 58c28 32 52 61 52 64s-87 6-192 5l-193-1-25-7zm-580-920c-99-31-173-116-186-215l-6-44 16-48c21-63 63-126 128-192l53-54 57-33c32-19 78-41 103-50l47-15 46 20c25 11 69 38 97 59l50 38 43 62 43 61-13 4c-7 2-45 7-83 9l-70 5-57 22-56 21-41 39-40 39-26 51-26 51-13 87-12 87-15 2c-7 1-25-2-39-6z"/></g><g fill="#403f3f" transform="matrix(.1 0 0 -.1 0 300)"><path d="M1435 2381c-40-10-86-35-124-67l-32-27-25-49-25-49-2-37-2-37 200-2 200-3 11 8c5 4 27 38 48 76s63 97 92 132l55 64-183-1c-101-1-196-4-213-8zm-631-935c-17-7-47-28-66-45l-36-31-22-48-23-47v-111l33-64 34-65 71-70 70-70 74-37 73-38h59l50 26c28 14 71 44 96 67 43 40 109 125 101 132-1 1-41 8-87 14l-83 11-59 26-59 27-36 40c-20 22-47 63-60 92l-24 52-8 74-7 74-30 2-30 3-31-14z"/></g><g fill="#070604" transform="matrix(.1 0 0 -.1 0 300)"><path d="m1545 2381-130-6-36-18c-74-37-143-129-151-202l-3-30 195-5 195-6 17 8 17 8 36 69 36 68 49 56c28 30 50 58 50 61 0 7-73 6-275-3zm-752-946-51-26-27-34c-14-19-33-52-42-72l-15-37 4-56 4-56 23-45c13-24 39-66 60-92l36-49 60-45c68-52 169-103 203-103h22l58 32 57 32 50 52c28 28 58 65 68 82l18 32h-43c-56 0-158 25-206 49l-38 19-43 47-43 46-19 44-19 44-10 73c-5 40-10 76-10 81 0 15-48 6-97-18z"/></g></g></svg>